<?xml version="1.0" standalone="no"?>
<!DOCTYPE svg PUBLIC "-//W3C//DTD SVG 20010904//EN"
 "http://www.w3.org/TR/2001/REC-SVG-20010904/DTD/svg10.dtd">
<svg version="1.0" xmlns="http://www.w3.org/2000/svg"
 width="400.000000pt" height="400.000000pt" viewBox="0 0 400.000000 400.000000"
 preserveAspectRatio="xMidYMid meet">
<metadata>
Created by potrace 1.11, written by Peter Selinger 2001-2013
</metadata>
<g transform="translate(0.000000,400.000000) scale(0.100000,-0.100000)"
fill="#000000" stroke="none">
<path d="M2008 3915 c-2 -2 -19 -4 -38 -6 -19 -2 -41 -8 -49 -13 -8 -6 -16
-10 -18 -8 -10 7 -65 -16 -120 -50 -84 -53 -194 -178 -185 -210 1 -5 -2 -8 -7
-8 -5 0 -13 -15 -16 -32 -4 -18 -10 -37 -13 -43 -11 -17 -14 -38 -17 -122 -3
-73 4 -127 22 -173 3 -8 7 -19 7 -25 3 -31 59 -117 111 -171 53 -55 92 -80
208 -136 41 -20 186 -28 257 -15 95 18 250 102 250 136 0 7 4 10 9 7 5 -3 17
6 27 20 11 15 24 32 31 39 24 26 72 132 85 190 8 33 13 85 12 115 -3 53 -4 66
-19 135 -20 94 -122 231 -217 292 -44 27 -135 63 -178 69 -38 6 -139 12 -142
9z"/>
<path d="M1615 2640 c2 -36 6 -114 9 -175 4 -60 9 -157 11 -215 5 -113 12
-258 21 -435 3 -60 7 -144 9 -185 7 -153 16 -338 20 -420 3 -47 7 -132 10
-190 2 -58 7 -154 10 -215 3 -60 8 -150 10 -200 2 -49 7 -146 11 -215 3 -69 7
-155 8 -192 0 -36 4 -70 9 -74 7 -7 591 -13 613 -6 6 1 12 26 13 55 2 29 4 81
6 117 3 60 13 270 20 415 2 33 6 121 9 195 3 74 8 173 11 220 5 94 14 275 20
415 3 50 7 135 9 190 3 55 8 152 11 215 3 63 8 162 11 220 10 195 13 245 18
396 l6 150 -439 0 -439 0 3 -66z"/>
</g>
</svg>
